<svg width="24" height="24" viewBox="0 0 24 24" fill="none" xmlns="http://www.w3.org/2000/svg">
<path d="M3 8L3 13L8 13" stroke="black" stroke-width="2" stroke-linecap="round" stroke-linejoin="round"/>
<path d="M3.51 15.5C4.15 17.32 5.36 18.88 6.96 19.94C8.56 21 10.46 21.5 12.36 21.36C14.27 21.22 16.08 20.44 17.51 19.15C18.94 17.86 19.92 16.13 20.3 14.23C20.68 12.33 20.44 10.36 19.61 8.61C18.79 6.86 17.43 5.42 15.74 4.51C14.04 3.6 12.1 3.27 10.2 3.57C8.3 3.86 6.55 4.77 5.21 6.15L3 8.35" stroke="black" stroke-width="2" stroke-linecap="round" stroke-linejoin="round"/>
</svg>
